<?xml version="1.0" encoding="UTF-8"?>
<svg width="64px" height="64px" viewBox="0 0 64 64" version="1.1" xmlns="http://www.w3.org/2000/svg" xmlns:xlink="http://www.w3.org/1999/xlink">
    <!-- Generator: Sketch 54 (76480) - https://sketchapp.com -->
    <title>book-blank</title>
    <desc>Created with Sketch.</desc>
    <g id="Page-1" stroke="none" stroke-width="1" fill="none" fill-rule="evenodd">
        <g id="book-blank" fill-rule="nonzero">
            <path d="M32,0 C49.7,0 64,14.3 64,32 C64,49.7 49.7,64 32,64 C14.3,64 0,49.7 0,32 C0,14.3 14.3,0 32,0 Z" id="Shape" fill="#FFDD7F"></path>
            <path d="M52,17 L12,17 C11.4,17 11,17.4 11,18 L11,48 C11,48.6 11.4,49 12,49 L26.3,49 C27.3,49 28.2,49.4 28.7,50.2 C29.4,51.3 30.6,52 32,52 C33.4,52 34.6,51.3 35.3,50.2 C35.8,49.4 36.8,49 37.7,49 L52,49 C52.6,49 53,48.6 53,48 L53,18 C53,17.4 52.6,17 52,17 Z" id="Shape" fill="#424C72"></path>
            <path d="M14,28 L14,46 L30,46 C31.1,46 32,46.9 32,48 C32,46.9 32.9,46 34,46 L50,46 L50,28 L14,28 Z" id="Shape" fill="#E4E7EF"></path>
            <path d="M35,13 C33.3,13 32,14.3 32,16 C32,14.3 30.7,13 29,13 L14,13 L14,44 L30,44 C31.1,44 32,44.9 32,46 C32,44.9 32.9,44 34,44 L50,44 L50,13 L35,13 Z" id="Shape" fill="#FFFFFF"></path>
        </g>
    </g>
</svg>