<?xml version="1.0" encoding="UTF-8"?>
<svg width="64px" height="64px" viewBox="0 0 64 64" version="1.1" xmlns="http://www.w3.org/2000/svg" xmlns:xlink="http://www.w3.org/1999/xlink">
    <!-- Generator: Sketch 51.3 (57544) - http://www.bohemiancoding.com/sketch -->
    <title>book-open-flat</title>
    <desc>Created with Sketch.</desc>
    <defs></defs>
    <g id="Page-1" stroke="none" stroke-width="1" fill="none" fill-rule="evenodd">
        <g id="book-open-flat" fill-rule="nonzero">
            <path d="M32,0 C49.7,0 64,14.3 64,32 C64,49.7 49.7,64 32,64 C14.3,64 0,49.7 0,32 C0,14.3 14.3,0 32,0 Z" id="Shape" fill="#FFBB00"></path>
            <path d="M52,17 L12,17 C11.4,17 11,17.4 11,18 L11,48 C11,48.6 11.4,49 12,49 L26.3,49 C27.3,49 28.2,49.4 28.7,50.2 C29.4,51.3 30.6,52 32,52 C33.4,52 34.6,51.3 35.3,50.2 C35.8,49.4 36.8,49 37.7,49 L52,49 C52.6,49 53,48.6 53,48 L53,18 C53,17.4 52.6,17 52,17 Z" id="Shape" fill="#424C72"></path>
            <path d="M14,28 L14,46 L30,46 C31.1,46 32,46.9 32,48 C32,46.9 32.9,46 34,46 L50,46 L50,28 L14,28 Z" id="Shape" fill="#E4E7EF"></path>
            <path d="M35,13 C33.3,13 32,14.3 32,16 C32,14.3 30.7,13 29,13 L14,13 L14,44 L30,44 C31.1,44 32,44.9 32,46 C32,44.9 32.9,44 34,44 L50,44 L50,13 L35,13 Z" id="Shape" fill="#FFFFFF"></path>
            <rect id="Rectangle-path" fill="#C45500" x="18" y="16" width="4" height="7"></rect>
            <path d="M29,26.5 L18,26.5 C17.7,26.5 17.5,26.3 17.5,26 C17.5,25.7 17.7,25.5 18,25.5 L29,25.5 C29.3,25.5 29.5,25.7 29.5,26 C29.5,26.3 29.3,26.5 29,26.5 Z" id="Shape" fill="#E4E7EF"></path>
            <path d="M29,23.5 L24.6,23.5 C24.3,23.5 24.1,23.3 24.1,23 C24.1,22.7 24.3,22.5 24.6,22.5 L29,22.5 C29.3,22.5 29.5,22.7 29.5,23 C29.5,23.3 29.3,23.5 29,23.5 Z" id="Shape" fill="#E4E7EF"></path>
            <path d="M29,20.5 L24.6,20.5 C24.3,20.5 24.1,20.3 24.1,20 C24.1,19.7 24.3,19.5 24.6,19.5 L29,19.5 C29.3,19.5 29.5,19.7 29.5,20 C29.5,20.3 29.3,20.5 29,20.5 Z" id="Shape" fill="#E4E7EF"></path>
            <path d="M29,17.5 L24.6,17.5 C24.3,17.5 24.1,17.3 24.1,17 C24.1,16.7 24.3,16.5 24.6,16.5 L29,16.5 C29.3,16.5 29.5,16.7 29.5,17 C29.5,17.3 29.3,17.5 29,17.5 Z" id="Shape" fill="#E4E7EF"></path>
            <path d="M29,29.5 L18,29.5 C17.7,29.5 17.5,29.3 17.5,29 C17.5,28.7 17.7,28.5 18,28.5 L29,28.5 C29.3,28.5 29.5,28.7 29.5,29 C29.5,29.3 29.3,29.5 29,29.5 Z" id="Shape" fill="#E4E7EF"></path>
            <path d="M29,32.5 L18,32.5 C17.7,32.5 17.5,32.3 17.5,32 C17.5,31.7 17.7,31.5 18,31.5 L29,31.5 C29.3,31.5 29.5,31.7 29.5,32 C29.5,32.3 29.3,32.5 29,32.5 Z" id="Shape" fill="#E4E7EF"></path>
            <path d="M29,35.5 L18,35.5 C17.7,35.5 17.5,35.3 17.5,35 C17.5,34.7 17.7,34.5 18,34.5 L29,34.5 C29.3,34.5 29.5,34.7 29.5,35 C29.5,35.3 29.3,35.5 29,35.5 Z" id="Shape" fill="#E4E7EF"></path>
            <path d="M29,38.5 L18,38.5 C17.7,38.5 17.5,38.3 17.5,38 C17.5,37.7 17.7,37.5 18,37.5 L29,37.5 C29.3,37.5 29.5,37.7 29.5,38 C29.5,38.3 29.3,38.5 29,38.5 Z" id="Shape" fill="#E4E7EF"></path>
            <path d="M29,41.5 L18,41.5 C17.7,41.5 17.5,41.3 17.5,41 C17.5,40.7 17.7,40.5 18,40.5 L29,40.5 C29.3,40.5 29.5,40.7 29.5,41 C29.5,41.3 29.3,41.5 29,41.5 Z" id="Shape" fill="#E4E7EF"></path>
            <path d="M46,26.5 L35,26.5 C34.7,26.5 34.5,26.3 34.5,26 C34.5,25.7 34.7,25.5 35,25.5 L46,25.5 C46.3,25.5 46.5,25.7 46.5,26 C46.5,26.3 46.3,26.5 46,26.5 Z" id="Shape" fill="#E4E7EF"></path>
            <path d="M46,29.5 L35,29.5 C34.7,29.5 34.5,29.3 34.5,29 C34.5,28.7 34.7,28.5 35,28.5 L46,28.5 C46.3,28.5 46.5,28.7 46.5,29 C46.5,29.3 46.3,29.5 46,29.5 Z" id="Shape" fill="#E4E7EF"></path>
            <path d="M46,20.5 L35,20.5 C34.7,20.5 34.5,20.3 34.5,20 C34.5,19.7 34.7,19.5 35,19.5 L46,19.5 C46.3,19.5 46.5,19.7 46.5,20 C46.5,20.3 46.3,20.5 46,20.5 Z" id="Shape" fill="#E4E7EF"></path>
            <path d="M46,17.5 L35,17.5 C34.7,17.5 34.5,17.3 34.5,17 C34.5,16.7 34.7,16.5 35,16.5 L46,16.5 C46.3,16.5 46.5,16.7 46.5,17 C46.5,17.3 46.3,17.5 46,17.5 Z" id="Shape" fill="#E4E7EF"></path>
            <path d="M46,23.5 L35,23.5 C34.7,23.5 34.5,23.3 34.5,23 C34.5,22.7 34.7,22.5 35,22.5 L46,22.5 C46.3,22.5 46.5,22.7 46.5,23 C46.5,23.3 46.3,23.5 46,23.5 Z" id="Shape" fill="#E4E7EF"></path>
            <path d="M46,32.5 L35,32.5 C34.7,32.5 34.5,32.3 34.5,32 C34.5,31.7 34.7,31.5 35,31.5 L46,31.5 C46.3,31.5 46.5,31.7 46.5,32 C46.5,32.3 46.3,32.5 46,32.5 Z" id="Shape" fill="#E4E7EF"></path>
            <path d="M46,35.5 L35,35.5 C34.7,35.5 34.5,35.3 34.5,35 C34.5,34.7 34.7,34.5 35,34.5 L46,34.5 C46.3,34.5 46.5,34.7 46.5,35 C46.5,35.3 46.3,35.5 46,35.5 Z" id="Shape" fill="#E4E7EF"></path>
            <path d="M46,38.5 L35,38.5 C34.7,38.5 34.5,38.3 34.5,38 C34.5,37.7 34.7,37.5 35,37.5 L46,37.5 C46.3,37.5 46.5,37.7 46.5,38 C46.5,38.3 46.3,38.5 46,38.5 Z" id="Shape" fill="#E4E7EF"></path>
            <path d="M46,41.5 L35,41.5 C34.7,41.5 34.5,41.3 34.5,41 C34.5,40.7 34.7,40.5 35,40.5 L46,40.5 C46.3,40.5 46.5,40.7 46.5,41 C46.5,41.3 46.3,41.5 46,41.5 Z" id="Shape" fill="#E4E7EF"></path>
        </g>
    </g>
</svg>