<?xml version="1.0" encoding="UTF-8"?>
<svg width="64px" height="64px" viewBox="0 0 64 64" version="1.1" xmlns="http://www.w3.org/2000/svg" xmlns:xlink="http://www.w3.org/1999/xlink">
    <!-- Generator: Sketch 54.1 (76490) - https://sketchapp.com -->
    <title>book-amazon</title>
    <desc>Created with Sketch.</desc>
    <g id="Page-1" stroke="none" stroke-width="1" fill="none" fill-rule="evenodd">
        <g id="book-amazon" fill-rule="nonzero">
            <path d="M32,0 C49.7,0 64,14.3 64,32 C64,49.7 49.7,64 32,64 C14.3,64 0,49.7 0,32 C0,14.3 14.3,0 32,0 Z" id="Shape" fill="#FFDD7F"></path>
            <path d="M52,17 L12,17 C11.4,17 11,17.4 11,18 L11,48 C11,48.6 11.4,49 12,49 L26.3,49 C27.3,49 28.2,49.4 28.7,50.2 C29.4,51.3 30.6,52 32,52 C33.4,52 34.6,51.3 35.3,50.2 C35.8,49.4 36.8,49 37.7,49 L52,49 C52.6,49 53,48.6 53,48 L53,18 C53,17.4 52.6,17 52,17 Z" id="Shape" fill="#424C72"></path>
            <path d="M14,28 L14,46 L30,46 C31.1,46 32,46.9 32,48 C32,46.9 32.9,46 34,46 L50,46 L50,28 L14,28 Z" id="Shape" fill="#E4E7EF"></path>
            <path d="M35,13 C33.3,13 32,14.3 32,16 C32,14.3 30.7,13 29,13 L14,13 L14,44 L30,44 C31.1,44 32,44.9 32,46 C32,44.9 32.9,44 34,44 L50,44 L50,13 L35,13 Z" id="Shape" fill="#FFFFFF"></path>
            <g id="amazon" transform="translate(20.000000, 19.000000)" fill="#FFBB00">
                <path d="M21.8052371,18.9871687 C19.1619416,20.9544061 15.3357223,22 12.0372574,22 C7.41488291,22 3.25391657,20.279903 0.106238635,17.4085121 C-0.138790186,17.1849451 0.0775891113,16.8762097 0.374639436,17.0518695 C3.7718698,19.0480033 7.97505649,20.2456836 12.3154593,20.2456836 C15.2414804,20.2456836 18.4600282,19.6327754 21.4237461,18.3636146 C21.8663058,18.1735066 22.2432732,18.6632248 21.8052371,18.9864083 L21.8052371,18.9871687 Z" id="Path"></path>
                <path d="M22.6525703,18.0705366 C22.2776759,17.6812911 20.184932,17.8843757 19.2418642,17.9777946 C18.9552783,18.0035187 18.9136233,17.8044957 19.1693846,17.656244 C20.8405806,16.704454 23.5798092,16.9792952 23.8972198,17.2967842 C24.219629,17.6183348 23.8139099,19.848204 22.2468512,20.9143983 C22.0069188,21.0795738 21.7778167,20.9908935 21.881954,20.7749469 C22.2410196,20.060089 23.0274647,18.4604591 22.6525703,18.0712135 L22.6525703,18.0705366 Z" id="Path"></path>
                <path d="M16.5828452,15.7650802 L16.5874099,15.7694441 C17.1770128,15.2741488 18.2375374,14.3875631 18.8362697,13.9104505 C19.0743932,13.728624 19.0310288,13.4238829 18.845399,13.1693259 C18.3082897,12.4602027 17.7377062,11.8827219 17.7377062,10.5735715 L17.7377062,6.20973681 C17.7377062,4.35947089 17.8708424,2.6641211 16.4489483,1.39133597 C15.3268007,0.363652893 13.4628946,0 12.0364358,0 C9.25046674,0 6.14040624,0.995681622 5.48918026,4.28674031 C5.41766713,4.63657439 5.68926488,4.82349198 5.92662762,4.87294877 L8.76509037,5.16823492 C9.03136267,5.15441611 9.22155718,4.90422292 9.27405086,4.64966589 C9.51673904,3.51797809 10.5103151,2.96740761 11.627898,2.96740761 C12.2319558,2.96740761 12.916656,3.17614437 13.2734609,3.6947134 C13.6827594,4.27219419 13.6302657,5.05841175 13.6302657,5.72680576 L13.6302657,6.09045866 C11.93297,6.2722851 9.71225899,6.39010864 8.12375451,7.05850266 C6.28875795,7.8178099 5,9.3633347 5,11.6361653 C5,14.5453884 6.91639981,16 9.38436367,16 C11.4673739,16 12.6032154,15.5316151 14.2107394,13.95918 C14.743284,14.6952134 14.914459,15.0545025 15.8890157,15.8276285 C16.1126844,15.9410882 16.388086,15.9323606 16.583606,15.7643529 L16.5828452,15.7650802 Z M13.6302657,8.93713351 C13.6302657,10.0280922 13.6591753,10.9372244 13.0832664,11.9052684 C12.6169094,12.6958498 11.8804763,13.1780535 11.0580753,13.1780535 C9.93592773,13.1780535 9.2793763,12.3598345 9.2793763,11.150325 C9.2793763,8.76403473 11.5191068,8.33201509 13.6348304,8.33201509 L13.6348304,8.9364062 L13.6302657,8.93713351 Z" id="Shape"></path>
            </g>
        </g>
    </g>
</svg>