<?xml version="1.0" encoding="UTF-8"?>
<svg width="128px" height="128px" viewBox="0 0 128 128" version="1.1" xmlns="http://www.w3.org/2000/svg" xmlns:xlink="http://www.w3.org/1999/xlink">
    <!-- Generator: Sketch 53.2 (72643) - https://sketchapp.com -->
    <title>book-what</title>
    <desc>Created with Sketch.</desc>
    <g id="Page-1" stroke="none" stroke-width="1" fill="none" fill-rule="evenodd">
        <g id="book-what" fill-rule="nonzero">
            <path d="M64,0 C99.4,0 128,28.6 128,64 C128,99.4 99.4,128 64,128 C28.6,128 0,99.4 0,64 C0,28.6 28.6,0 64,0 Z" id="Shape" fill="#FFFFFF"></path>
            <path d="M86,40.76 C86,45.0800216 84.9200108,49.039982 82.76,52.64 C81.6399944,54.4800092 80.5600052,55.9399946 79.52,57.02 C78.4799948,58.1000054 75.5200244,60.7199792 70.64,64.88 C64.7999708,69.9200252 61.88,74.2799816 61.88,77.96 C61.88,79.2400064 62.3599952,81.4399844 63.32,84.56 C63.4000004,84.8000012 63.44,85.1599976 63.44,85.64 C63.44,86.3600036 63.1200032,86.72 62.48,86.72 C61.5999956,86.72 60.7400042,85.5600116 59.9,83.24 C59.0599958,80.9199884 58.64,78.560012 58.64,76.16 C58.64,72.959984 59.2799936,69.9400142 60.56,67.1 C61.8400064,64.2599858 64.1999828,60.640022 67.64,56.24 C72.7600256,49.6799672 75.32,44.000024 75.32,39.2 C75.32,34.799978 74.1600116,31.3400126 71.84,28.82 C69.5199884,26.2999874 66.36002,25.04 62.36,25.04 C58.6799816,25.04 55.6000124,26.339987 53.12,28.94 C50.6399876,31.540013 49.4,34.7999804 49.4,38.72 C49.4,39.6000044 49.5199988,40.04 49.76,40.04 C49.8400004,39.8799992 50.079998,39.4800032 50.48,38.84 C51.280004,37.3199924 52.7599892,36.56 54.92,36.56 C58.520018,36.56 60.32,38.3999816 60.32,42.08 C60.32,45.9200192 58.2400208,47.84 54.08,47.84 C51.5999876,47.84 49.6400072,47.0200082 48.2,45.38 C46.7599928,43.7399918 46.04,41.5600136 46.04,38.84 C46.04,33.9599756 47.8199822,29.9600156 51.38,26.84 C54.9400178,23.7199844 59.5599716,22.16 65.24,22.16 C71.4800312,22.16 76.499981,23.859983 80.3,27.26 C84.100019,30.660017 86,35.159972 86,40.76 Z M68.96,101.24 C68.96,103.000009 68.3400062,104.519994 67.1,105.8 C65.8599938,107.080006 64.3200092,107.72 62.48,107.72 C60.7199912,107.72 59.2000064,107.080006 57.92,105.8 C56.6399936,104.519994 56,103.000009 56,101.24 C56,99.3999908 56.6399936,97.8600062 57.92,96.62 C59.2000064,95.3799938 60.7599908,94.76 62.6,94.76 C64.3600088,94.76 65.8599938,95.3999936 67.1,96.68 C68.3400062,97.9600064 68.96,99.4799912 68.96,101.24 Z" id="?" fill="#232F3E"></path>
        </g>
    </g>
</svg>