<?xml version="1.0" encoding="UTF-8"?>
<svg width="128px" height="128px" viewBox="0 0 128 128" version="1.1" xmlns="http://www.w3.org/2000/svg" xmlns:xlink="http://www.w3.org/1999/xlink">
    <!-- Generator: Sketch 54 (76480) - https://sketchapp.com -->
    <title>book-review</title>
    <desc>Created with Sketch.</desc>
    <defs>
        <path d="M64,0 C99.4,0 128,28.6 128,64 C128,99.4 99.4,128 64,128 C28.6,128 0,99.4 0,64 C0,28.6 28.6,0 64,0 Z" id="path-1"></path>
        <linearGradient x1="100%" y1="100%" x2="0%" y2="100%" id="linearGradient-3">
            <stop stop-color="#F5F5F5" offset="0%"></stop>
            <stop stop-color="#F5F5F5" offset="49.963049%"></stop>
            <stop stop-color="#FFFFFF" offset="50.0265503%"></stop>
            <stop stop-color="#FFFFFF" offset="100%"></stop>
        </linearGradient>
        <polygon id="path-4" points="64 39.8753882 54.7294902 45 56.5 34.145898 49 26.4589803 59.3647451 24.8753882 64 15 68.6352549 24.8753882 79 26.4589803 71.5 34.145898 73.2705098 45"></polygon>
        <filter x="-8.6%" y="-9.5%" width="117.2%" height="117.4%" filterUnits="objectBoundingBox" id="filter-5">
            <feMorphology radius="0.5" operator="dilate" in="SourceAlpha" result="shadowSpreadOuter1"></feMorphology>
            <feOffset dx="0" dy="0" in="shadowSpreadOuter1" result="shadowOffsetOuter1"></feOffset>
            <feColorMatrix values="0 0 0 0 1   0 0 0 0 1   0 0 0 0 1  0 0 0 1 0" type="matrix" in="shadowOffsetOuter1"></feColorMatrix>
        </filter>
    </defs>
    <g id="Page-1" stroke="none" stroke-width="1" fill="none" fill-rule="evenodd">
        <g id="book-review">
            <mask id="mask-2" fill="white">
                <use xlink:href="#path-1"></use>
            </mask>
            <use id="Shape" fill="#37475A" fill-rule="nonzero" xlink:href="#path-1"></use>
            <g id="Group-5" mask="url(#mask-2)">
                <g transform="translate(20.000000, 31.000000)" id="Group-3">
                    <g>
                        <circle id="Oval" fill="#D8D8D8" cx="44" cy="64" r="6"></circle>
                        <rect id="Rectangle" fill="#D8D8D8" x="49" y="64" width="6" height="3"></rect>
                        <rect id="Rectangle" fill="#D8D8D8" x="33" y="64" width="6" height="3"></rect>
                        <circle id="Oval" fill="#37475A" cx="54.5" cy="70" r="6"></circle>
                        <circle id="Oval" fill="#37475A" cx="33.5" cy="70" r="6"></circle>
                        <polygon id="Path" fill="#D8D8D8" points="0 4 88 4 88 64 0 64"></polygon>
                        <path d="M38,60 L4,60 L4,0 L84,0 L84,60 L50,60 C46.6862915,60 44,62.6862915 44,66 C44,62.6862915 41.3137085,60 38,60 Z" id="Combined-Shape" fill="url(#linearGradient-3)"></path>
                        <path d="M50,0 C46.6862915,0 44,2.6862915 44,6 C44,2.6862915 41.3137085,0 38,0 L50,0 Z" id="Combined-Shape" fill="#37475A"></path>
                        <g id="Star">
                            <use fill="black" fill-opacity="1" filter="url(#filter-5)" xlink:href="#path-4"></use>
                            <use fill="#FFBB00" fill-rule="evenodd" xlink:href="#path-4"></use>
                        </g>
                        <g id="Group-6" transform="translate(12.000000, 9.000000)" fill="#E4E7EF" fill-rule="nonzero">
                            <path d="M23.9583333,17 L1.04166667,17 C0.416666667,17 0,16.6 0,16 C0,15.4 0.416666667,15 1.04166667,15 L23.9583333,15 C24.5833333,15 25,15.4 25,16 C25,16.6 24.5833333,17 23.9583333,17 Z" id="Shape"></path>
                            <path d="M23.9583333,22 L1.04166667,22 C0.416666667,22 0,21.6 0,21 C0,20.4 0.416666667,20 1.04166667,20 L23.9583333,20 C24.5833333,20 25,20.4 25,21 C25,21.6 24.5833333,22 23.9583333,22 Z" id="Shape"></path>
                            <path d="M23.9583333,7 L1.04166667,7 C0.416666667,7 0,6.6 0,6 C0,5.4 0.416666667,5 1.04166667,5 L23.9583333,5 C24.5833333,5 25,5.4 25,6 C25,6.6 24.5833333,7 23.9583333,7 Z" id="Shape"></path>
                            <path d="M23.9583333,2 L1.04166667,2 C0.416666667,2 0,1.6 0,1 C0,0.4 0.416666667,0 1.04166667,0 L23.9583333,0 C24.5833333,0 25,0.4 25,1 C25,1.6 24.5833333,2 23.9583333,2 Z" id="Shape"></path>
                            <path d="M23.9583333,12 L1.04166667,12 C0.416666667,12 0,11.6 0,11 C0,10.4 0.416666667,10 1.04166667,10 L23.9583333,10 C24.5833333,10 25,10.4 25,11 C25,11.6 24.5833333,12 23.9583333,12 Z" id="Shape"></path>
                            <path d="M23.9583333,27 L1.04166667,27 C0.416666667,27 0,26.6 0,26 C0,25.4 0.416666667,25 1.04166667,25 L23.9583333,25 C24.5833333,25 25,25.4 25,26 C25,26.6 24.5833333,27 23.9583333,27 Z" id="Shape"></path>
                            <path d="M23.9583333,32 L1.04166667,32 C0.416666667,32 0,31.6 0,31 C0,30.4 0.416666667,30 1.04166667,30 L23.9583333,30 C24.5833333,30 25,30.4 25,31 C25,31.6 24.5833333,32 23.9583333,32 Z" id="Shape"></path>
                            <path d="M23.9583333,37 L1.04166667,37 C0.416666667,37 0,36.6 0,36 C0,35.4 0.416666667,35 1.04166667,35 L23.9583333,35 C24.5833333,35 25,35.4 25,36 C25,36.6 24.5833333,37 23.9583333,37 Z" id="Shape"></path>
                            <path d="M23.9583333,42 L1.04166667,42 C0.416666667,42 0,41.6 0,41 C0,40.4 0.416666667,40 1.04166667,40 L23.9583333,40 C24.5833333,40 25,40.4 25,41 C25,41.6 24.5833333,42 23.9583333,42 Z" id="Shape"></path>
                        </g>
                    </g>
                </g>
            </g>
        </g>
    </g>
</svg>